<svg width="13" height="11" viewBox="0 0 13 11" fill="none" xmlns="http://www.w3.org/2000/svg">
<path d="M6.70886 1.08C6.64698 1.02667 6.57736 1 6.5 1C6.42264 1 6.35302 1.02667 6.29114 1.08L1.04641 5.6C1.01547 5.62667 1 5.68 1 5.76C1 5.84 1.02321 5.9 1.06962 5.94C1.11603 5.98 1.17792 6 1.25527 6C1.33263 6 1.40225 5.97333 1.46413 5.92L6.47679 1.6L11.4895 5.92C11.5513 5.97333 11.621 6 11.6983 6C11.7757 6 11.8453 5.98 11.9072 5.94C11.9691 5.9 12 5.84 12 5.76C12 5.68 11.9691 5.62667 11.9072 5.6L6.70886 1.08Z" fill="#ED1E25" stroke="#ED1E25" stroke-width="0.5"/>
<path d="M6.70886 5.08C6.64698 5.02667 6.57736 5 6.5 5C6.42264 5 6.35302 5.02667 6.29114 5.08L1.04641 9.6C1.01547 9.62667 1 9.68 1 9.76C1 9.84 1.02321 9.9 1.06962 9.94C1.11603 9.98 1.17792 10 1.25527 10C1.33263 10 1.40225 9.97333 1.46413 9.92L6.47679 5.6L11.4895 9.92C11.5513 9.97333 11.621 10 11.6983 10C11.7757 10 11.8453 9.98 11.9072 9.94C11.9691 9.9 12 9.84 12 9.76C12 9.68 11.9691 9.62667 11.9072 9.6L6.70886 5.08Z" fill="#ED1E25" stroke="#ED1E25" stroke-width="0.5"/>
</svg>
