<svg width="20" height="20" viewBox="0 0 20 20" fill="none" xmlns="http://www.w3.org/2000/svg">
<path d="M1.5 9.25C1.08579 9.25 0.75 9.58579 0.75 10C0.75 10.4142 1.08579 10.75 1.5 10.75H9.25V18.5C9.25 18.9142 9.58579 19.25 10 19.25C10.4142 19.25 10.75 18.9142 10.75 18.5V10.75H18.5C18.9142 10.75 19.25 10.4142 19.25 10C19.25 9.58579 18.9142 9.25 18.5 9.25H10.75V1.5C10.75 1.08579 10.4142 0.75 10 0.75C9.58579 0.75 9.25 1.08579 9.25 1.5V9.25H1.5Z" stroke="#ED1E25" stroke-width="1.5" stroke-linecap="round" stroke-linejoin="round"/>
</svg>
