<svg width="19" height="16" viewBox="0 0 19 16" fill="none" xmlns="http://www.w3.org/2000/svg">
<path d="M8.53122 0.719445C8.60095 0.789099 8.65627 0.871818 8.69401 0.962866C8.73175 1.05391 8.75118 1.15151 8.75118 1.25007C8.75118 1.34863 8.73175 1.44623 8.69401 1.53728C8.65627 1.62833 8.60095 1.71104 8.53122 1.7807L3.0609 7.25007L17.7506 7.25007C17.9495 7.25007 18.1403 7.32909 18.2809 7.46974C18.4216 7.61039 18.5006 7.80116 18.5006 8.00007C18.5006 8.19898 18.4216 8.38975 18.2809 8.5304C18.1403 8.67105 17.9495 8.75007 17.7506 8.75007L3.0609 8.75007L8.53122 14.2194C8.67195 14.3602 8.75101 14.551 8.75101 14.7501C8.75101 14.9491 8.67195 15.14 8.53122 15.2807C8.39049 15.4214 8.19961 15.5005 8.00059 15.5005C7.80157 15.5005 7.6107 15.4214 7.46997 15.2807L0.719965 8.5307C0.650232 8.46104 0.594913 8.37832 0.55717 8.28728C0.519427 8.19623 0.5 8.09863 0.5 8.00007C0.5 7.90151 0.519427 7.80391 0.55717 7.71287C0.594913 7.62182 0.650232 7.5391 0.719965 7.46945L7.46996 0.719445C7.53962 0.649712 7.62234 0.594393 7.71338 0.55665C7.80443 0.518906 7.90203 0.499481 8.00059 0.499481C8.09915 0.499481 8.19675 0.518906 8.2878 0.55665C8.37884 0.594393 8.46156 0.649712 8.53122 0.719445Z" fill="#333333"/>
</svg>
