<svg width="19" height="20" viewBox="0 0 19 20" fill="none" xmlns="http://www.w3.org/2000/svg">
<path fill-rule="evenodd" clip-rule="evenodd" d="M7.80936 0.249958H11.1908C11.4072 0.24982 11.5957 0.2497 11.7737 0.278127C12.477 0.390433 13.0856 0.829086 13.4146 1.46078C13.4978 1.62067 13.5573 1.79955 13.6256 2.00488L13.7373 2.33978C13.7562 2.39647 13.7616 2.41252 13.7661 2.42516C13.9413 2.90927 14.3953 3.23653 14.9099 3.24958C14.9235 3.24992 14.94 3.24998 15.0001 3.24998H18.0001C18.4143 3.24998 18.7501 3.58576 18.7501 3.99998C18.7501 4.41419 18.4143 4.74998 18.0001 4.74998H1C0.585786 4.74998 0.25 4.41419 0.25 3.99998C0.25 3.58576 0.585786 3.24998 1 3.24998H4.00008C4.06013 3.24998 4.0767 3.24992 4.09023 3.24958C4.60488 3.23653 5.05891 2.90929 5.23402 2.42518C5.23863 2.41245 5.24392 2.39675 5.26291 2.33978L5.37452 2.0049C5.44281 1.79958 5.50233 1.62067 5.58559 1.46078C5.91453 0.829088 6.52313 0.390433 7.22643 0.278127C7.40445 0.2497 7.59297 0.24982 7.80936 0.249958ZM6.50815 3.24998C6.55966 3.14895 6.60531 3.04398 6.64458 2.93542C6.6565 2.90245 6.6682 2.86736 6.68322 2.82228L6.78302 2.52286C6.87419 2.24935 6.89519 2.19357 6.91601 2.15358C7.02566 1.94301 7.22853 1.7968 7.46296 1.75936C7.50748 1.75225 7.56703 1.74998 7.85535 1.74998H11.1448C11.4331 1.74998 11.4927 1.75225 11.5372 1.75936C11.7716 1.7968 11.9745 1.94301 12.0842 2.15358C12.105 2.19357 12.126 2.24934 12.2171 2.52286L12.3169 2.8221L12.3556 2.93544C12.3949 3.04399 12.4405 3.14896 12.492 3.24998H6.50815Z" fill="#ED1E25"/>
<path d="M3.41509 6.45009C3.38754 6.03679 3.03016 5.72409 2.61686 5.75164C2.20357 5.77919 1.89086 6.13657 1.91841 6.54987L2.38186 13.5016C2.46736 14.7843 2.53642 15.8205 2.69839 16.6336C2.86679 17.4789 3.15321 18.1849 3.7448 18.7384C4.3364 19.2919 5.05995 19.5307 5.9146 19.6425C6.73662 19.75 7.77504 19.75 9.0606 19.75H9.9395C11.2251 19.75 12.2635 19.75 13.0856 19.6425C13.9402 19.5307 14.6638 19.2919 15.2554 18.7384C15.847 18.1849 16.1334 17.4789 16.3018 16.6336C16.4638 15.8205 16.5328 14.7844 16.6183 13.5016L17.0818 6.54987C17.1093 6.13657 16.7966 5.77919 16.3833 5.75164C15.97 5.72409 15.6126 6.03679 15.5851 6.45009L15.1251 13.3492C15.0353 14.6971 14.9713 15.6349 14.8307 16.3405C14.6943 17.0249 14.504 17.3872 14.2306 17.643C13.9572 17.8988 13.583 18.0646 12.891 18.1552C12.1776 18.2485 11.2376 18.25 9.88676 18.25H9.1134C7.76256 18.25 6.82255 18.2485 6.10915 18.1552C5.41715 18.0646 5.04299 17.8988 4.76958 17.643C4.49617 17.3872 4.30583 17.0249 4.16948 16.3405C4.02892 15.6349 3.96489 14.6971 3.87503 13.3492L3.41509 6.45009Z" fill="#ED1E25"/>
<path d="M6.92546 8.2537C7.33762 8.21248 7.70515 8.51319 7.74637 8.92535L8.24637 13.9253C8.28759 14.3375 7.98688 14.705 7.57472 14.7463C7.16256 14.7875 6.79503 14.4868 6.75381 14.0746L6.25381 9.0746C6.2126 8.66245 6.51331 8.29492 6.92546 8.2537Z" fill="#ED1E25"/>
<path d="M12.0747 8.2537C12.4869 8.29492 12.7876 8.66245 12.7464 9.0746L12.2464 14.0746C12.2052 14.4868 11.8376 14.7875 11.4255 14.7463C11.0133 14.705 10.7126 14.3375 10.7538 13.9253L11.2538 8.92535C11.295 8.51319 11.6626 8.21248 12.0747 8.2537Z" fill="#ED1E25"/>
</svg>
