<svg width="22" height="20" viewBox="0 0 22 20" fill="none" xmlns="http://www.w3.org/2000/svg">
<path d="M15.5719 7.52706C15.9997 6.56239 16.1113 5.48713 15.8907 4.45518C15.6701 3.42324 15.1287 2.48754 14.344 1.78202C13.5593 1.07651 12.5715 0.637363 11.5219 0.527447C10.4724 0.417531 9.41506 0.642483 8.50118 1.1701C7.5873 1.69772 6.86378 2.50094 6.4342 3.46479C6.00462 4.42865 5.891 5.5037 6.10961 6.53606C6.32821 7.56842 6.86784 8.50514 7.65123 9.21214C8.43463 9.91914 9.42162 10.3602 10.4709 10.4721C11.0557 9.63986 11.815 8.94522 12.6958 8.43659C13.5767 7.92796 14.5578 7.61757 15.5709 7.52706M12.1529 17.4471C12.5815 16.5241 12.8035 15.5187 12.8035 14.5011C12.8035 13.4834 12.5815 12.478 12.1529 11.5551C12.7745 10.7023 13.6499 10.068 14.6539 9.74304C15.6578 9.41807 16.7389 9.41909 17.7422 9.74594C18.7456 10.0728 19.6198 10.7087 20.2398 11.5626C20.8597 12.4166 21.1936 13.4448 21.1936 14.5001C21.1936 15.5553 20.8597 16.5835 20.2398 17.4375C19.6198 18.2914 18.7456 18.9273 17.7422 19.2542C16.7389 19.581 15.6578 19.582 14.6539 19.2571C13.6499 18.9321 12.7745 18.2978 12.1529 17.4451M5.27292 9.52506C5.85768 10.3574 6.61693 11.0522 7.49775 11.561C8.37857 12.0698 9.35976 12.3804 10.3729 12.4711C10.8005 13.4358 10.9119 14.5111 10.6911 15.543C10.4703 16.575 9.92875 17.5106 9.14386 18.2159C8.35896 18.9213 7.37102 19.3602 6.32147 19.4699C5.27192 19.5796 4.21457 19.3544 3.3008 18.8266C2.38703 18.2987 1.66368 17.4953 1.23433 16.5314C0.804972 15.5674 0.691617 14.4923 0.910492 13.46C1.12937 12.4276 1.66925 11.491 2.45284 10.7842C3.23644 10.0774 4.22357 9.63667 5.27292 9.52506Z" fill="#ED1E25"/>
</svg>
