<svg width="18" height="18" viewBox="0 0 18 18" fill="none" xmlns="http://www.w3.org/2000/svg">
<path d="M6.75 8.25V7.5C6.75 6.255 7.125 5.25 9 5.25C10.875 5.25 11.25 6.255 11.25 7.5V8.25" stroke="#260944" stroke-linecap="round" stroke-linejoin="round"/>
<path d="M9.00003 10.9501C9.24856 10.9501 9.45001 10.7486 9.45001 10.5001C9.45001 10.2515 9.24856 10.05 9.00003 10.05C8.7515 10.05 8.55005 10.2515 8.55005 10.5001C8.55005 10.7486 8.7515 10.9501 9.00003 10.9501Z" stroke="#260944" stroke-linecap="round" stroke-linejoin="round"/>
<path d="M10.875 12.75H7.125C5.625 12.75 5.25 12.375 5.25 10.875V10.125C5.25 8.625 5.625 8.25 7.125 8.25H10.875C12.375 8.25 12.75 8.625 12.75 10.125V10.875C12.75 12.375 12.375 12.75 10.875 12.75Z" stroke="#260944" stroke-linecap="round" stroke-linejoin="round"/>
<path d="M9 16.5C13.1421 16.5 16.5 13.1421 16.5 9C16.5 4.85786 13.1421 1.5 9 1.5C4.85786 1.5 1.5 4.85786 1.5 9C1.5 13.1421 4.85786 16.5 9 16.5Z" stroke="#260944" stroke-linecap="round" stroke-linejoin="round"/>
</svg>
