<svg width="17" height="16" viewBox="0 0 17 16" fill="none" xmlns="http://www.w3.org/2000/svg">
<path d="M6.04667 0H2.36667C1.83333 0 1.38889 0.177777 1.03333 0.533333C0.677778 0.888888 0.5 1.33333 0.5 1.86667V5.54667C0.5 6.04444 0.677778 6.47111 1.03333 6.82667C1.38889 7.18222 1.83333 7.36 2.36667 7.36H6.04667C6.54444 7.36 6.97111 7.18222 7.32667 6.82667C7.68222 6.47111 7.86 6.04444 7.86 5.54667V1.86667C7.86 1.33333 7.68222 0.888888 7.32667 0.533333C6.97111 0.177777 6.54444 0 6.04667 0ZM6.63333 5.54667C6.63333 5.68889 6.57111 5.82222 6.44667 5.94667C6.32222 6.07111 6.18889 6.13333 6.04667 6.13333H2.36667C2.18889 6.13333 2.03778 6.07111 1.91333 5.94667C1.78889 5.82222 1.72667 5.68889 1.72667 5.54667V1.86667C1.72667 1.68889 1.78889 1.53778 1.91333 1.41333C2.03778 1.28889 2.18889 1.22667 2.36667 1.22667H6.04667C6.18889 1.22667 6.32222 1.28889 6.44667 1.41333C6.57111 1.53778 6.63333 1.68889 6.63333 1.86667V5.54667ZM14.6333 0H11.0067C10.4733 0 10.0289 0.186666 9.67333 0.559999C9.31778 0.933333 9.14 1.36889 9.14 1.86667V5.49333C9.14 6.02667 9.31778 6.47111 9.67333 6.82667C10.0289 7.18222 10.4733 7.36 11.0067 7.36H14.6333C15.1311 7.36 15.5667 7.18222 15.94 6.82667C16.3133 6.47111 16.5 6.02667 16.5 5.49333V1.86667C16.5 1.36889 16.3133 0.933333 15.94 0.559999C15.5667 0.186666 15.1311 0 14.6333 0ZM15.2733 5.49333C15.2733 5.67111 15.2111 5.82222 15.0867 5.94667C14.9622 6.07111 14.8111 6.13333 14.6333 6.13333H11.0067C10.8289 6.13333 10.6778 6.07111 10.5533 5.94667C10.4289 5.82222 10.3667 5.67111 10.3667 5.49333V1.86667C10.3667 1.68889 10.4289 1.53778 10.5533 1.41333C10.6778 1.28889 10.8289 1.22667 11.0067 1.22667H14.6333C14.8111 1.22667 14.9622 1.28889 15.0867 1.41333C15.2111 1.53778 15.2733 1.68889 15.2733 1.86667V5.49333ZM6.04667 8.64H2.36667C1.83333 8.64 1.38889 8.81778 1.03333 9.17333C0.677778 9.52889 0.5 9.95556 0.5 10.4533V14.1333C0.5 14.6667 0.677778 15.1111 1.03333 15.4667C1.38889 15.8222 1.83333 16 2.36667 16H6.04667C6.54444 16 6.97111 15.8222 7.32667 15.4667C7.68222 15.1111 7.86 14.6667 7.86 14.1333V10.4533C7.86 9.95556 7.68222 9.52889 7.32667 9.17333C6.97111 8.81778 6.54444 8.64 6.04667 8.64ZM6.63333 14.1333C6.63333 14.3111 6.57111 14.4622 6.44667 14.5867C6.32222 14.7111 6.18889 14.7733 6.04667 14.7733H2.36667C2.18889 14.7733 2.03778 14.7111 1.91333 14.5867C1.78889 14.4622 1.72667 14.3111 1.72667 14.1333V10.4533C1.72667 10.3111 1.78889 10.1778 1.91333 10.0533C2.03778 9.92889 2.18889 9.86667 2.36667 9.86667H6.04667C6.18889 9.86667 6.32222 9.92889 6.44667 10.0533C6.57111 10.1778 6.63333 10.3111 6.63333 10.4533V14.1333ZM14.6333 8.64H11.0067C10.4733 8.64 10.0289 8.81778 9.67333 9.17333C9.31778 9.52889 9.14 9.97333 9.14 10.5067V14.1333C9.14 14.6311 9.31778 15.0667 9.67333 15.44C10.0289 15.8133 10.4733 16 11.0067 16H14.6333C15.1311 16 15.5667 15.8133 15.94 15.44C16.3133 15.0667 16.5 14.6311 16.5 14.1333V10.5067C16.5 9.97333 16.3133 9.52889 15.94 9.17333C15.5667 8.81778 15.1311 8.64 14.6333 8.64ZM15.2733 14.1333C15.2733 14.3111 15.2111 14.4622 15.0867 14.5867C14.9622 14.7111 14.8111 14.7733 14.6333 14.7733H11.0067C10.8289 14.7733 10.6778 14.7111 10.5533 14.5867C10.4289 14.4622 10.3667 14.3111 10.3667 14.1333V10.5067C10.3667 10.3289 10.4289 10.1778 10.5533 10.0533C10.6778 9.92889 10.8289 9.86667 11.0067 9.86667H14.6333C14.8111 9.86667 14.9622 9.92889 15.0867 10.0533C15.2111 10.1778 15.2733 10.3289 15.2733 10.5067V14.1333Z" fill="#260944"/>
</svg>
