<svg width="12" height="12" viewBox="0 0 12 12" fill="none" xmlns="http://www.w3.org/2000/svg">
<path fill-rule="evenodd" clip-rule="evenodd" d="M10.9499 1.93982C11.2232 1.66645 11.2232 1.22324 10.9499 0.949868C10.6765 0.676501 10.2333 0.676501 9.95992 0.949868L6.00024 4.90955L2.04032 0.949627C1.76696 0.67626 1.32374 0.67626 1.05037 0.949627C0.777006 1.22299 0.777006 1.66621 1.05037 1.93958L5.01029 5.89949L1.05037 9.85941C0.777006 10.1328 0.777005 10.576 1.05037 10.8494C1.32374 11.1227 1.76696 11.1227 2.04032 10.8494L6.00024 6.88944L9.95992 10.8491C10.2333 11.1225 10.6765 11.1225 10.9499 10.8491C11.2232 10.5758 11.2232 10.1325 10.9499 9.85917L6.99019 5.89949L10.9499 1.93982Z" fill="#797979"/>
</svg>
